<svg width="22" height="22" viewBox="0 0 22 22" fill="none" xmlns="http://www.w3.org/2000/svg">
<path fill-rule="evenodd" clip-rule="evenodd" d="M0.368904 6.46245C-0.225602 7.70252 -0.0169104 9.15288 0.400474 12.0537L0.707121 14.1847C1.24327 17.911 1.51135 19.774 2.80393 20.887C4.0965 22 5.9921 22 9.78329 22H12.2167C16.0079 22 17.9035 22 19.1961 20.887C20.4886 19.774 20.7567 17.911 21.2929 14.1847L21.5995 12.0537C22.0169 9.15288 22.2256 7.70252 21.6311 6.46245C21.0366 5.22236 19.7712 4.46857 17.2404 2.96099L15.717 2.05356C13.4189 0.684519 12.2697 0 11 0C9.73027 0 8.58114 0.684519 6.28292 2.05356L4.7596 2.96099C2.22881 4.46857 0.96341 5.22236 0.368904 6.46245ZM11 18.425C10.5444 18.425 10.175 18.0556 10.175 17.6V14.3C10.175 13.8444 10.5444 13.475 11 13.475C11.4556 13.475 11.825 13.8444 11.825 14.3V17.6C11.825 18.0556 11.4556 18.425 11 18.425Z" fill="#F5E9BC"/>
</svg>
