<svg width="265" height="259" viewBox="0 0 265 259" fill="none" xmlns="http://www.w3.org/2000/svg">
<g clip-path="url(#clip0_1690_1245)">
<path d="M127.5 7L129.5 2.5L130.5 1.5V0.5L127.5 2L125 5L124 8.5L126 13.5L130 16L130.5 20.5L129.5 24V34H128L127.5 34.5V42H124L123.5 64.5L130 63.5V55.5H134.5L135 63L141 64.1946V41.5H137.5V34.5L136.5 34H135.5L135 27.5L134.5 22V16L135.5 15.5L138 14L139.5 12.5L140 10H139.5L137.5 12L136 13H133.5L130 12L128.5 10.5L127.5 7Z" fill="#2D6D5F"/>
<path d="M132 129L83.5 149.5L83 144.5L83.5 139L84 128.5L84.5 122.5L86 116.5L88 110.5L91 105L96 97L102.692 89.5L102 90L91 101.5L90.5 100.5L91.5 98.5L93.5 95L96 91L99 86.5L103 81.5L108 77L112 73.5L117 70.5L122 68.25L127 66H135L141 67.5L146.5 69.5L151 72.5L158 78L163 83.5L167 88L169.5 92L174 100.5L177 108.5L179.5 117.5L180.5 122V125.5L179.5 124.5L176 116L170 107L174.5 117L178 127L180 136.5L181 150L134 129H132Z" fill="#2D6D5F"/>
<path fill-rule="evenodd" clip-rule="evenodd" d="M128.185 0.771966C126.42 1.53932 123.92 4.36307 123.56 5.99514C122.812 9.38463 122.822 9.37499 118.974 10.4936C113.716 12.0229 109.926 14.0136 88.4033 26.5489C87.0118 27.3594 83.0788 29.5986 79.6633 31.5245C76.2478 33.4505 73.1428 35.2268 72.7633 35.472C72.3838 35.7168 71.0383 36.5034 69.7733 37.2193C59.0553 43.2861 38.5035 55.2028 36.6533 56.423C32.3933 59.2329 26.9027 65.0237 23.668 70.1192C21.0087 74.3073 19.5492 77.723 17.9589 83.4802C16.952 87.1246 16.9428 87.4989 16.762 130.55C16.6617 154.418 16.7137 175.235 16.8775 176.81L17.1751 179.673L18.4042 179.042C19.0804 178.695 26.6713 175.578 35.2733 172.114C55.3293 164.038 72.2339 157.207 94.3833 148.227C104.124 144.277 116.685 139.202 122.297 136.949L132.5 132.852L139.087 135.624C142.71 137.148 146.812 138.884 148.203 139.481C152.207 141.2 184.406 154.768 188.223 156.344C190.121 157.128 194.157 158.853 197.193 160.178C200.229 161.503 206.853 164.344 211.913 166.492C238.423 177.742 245.264 180.605 245.641 180.605C245.869 180.605 246.186 179.521 246.345 178.194C246.855 173.959 246.687 91.3016 246.161 87.7014C244.655 77.3822 239.498 67.5696 231.955 60.6685C228.256 57.2845 225.382 55.4384 212.143 47.9412C199.668 40.8765 173.211 25.6502 166.833 21.8653C152.697 13.4749 146.334 10.4528 141.073 9.62848C140.314 9.50954 139.176 9.28774 138.543 9.13574C137.911 8.98374 135.53 8.76744 133.253 8.65493C130.976 8.54288 128.958 8.4391 128.768 8.42441C128.235 8.38308 128.361 5.24385 128.941 4.11968C129.226 3.56816 129.882 2.65201 130.401 2.0835C130.919 1.51499 131.122 1.05026 130.851 1.05026C129.944 1.05026 127.552 4.22714 127.25 5.83211C126.576 9.42045 129.147 12.9252 132.751 13.3307C135.345 13.6228 137.294 12.8623 138.783 10.9763C139.535 10.0253 139.915 9.79243 139.918 10.2815C139.928 11.6642 137.854 14.1371 135.914 15.0565L133.976 15.9749L133.96 19.2772C133.951 21.0934 134.15 22.7071 134.403 22.8632C134.668 23.0267 134.863 25.4702 134.863 28.6305V34.1141H136.013C137.15 34.1141 137.163 34.16 137.163 38.0175V41.9208H139.003H140.843V52.9508V63.9808L139.808 63.7407C139.239 63.6084 137.945 63.3375 136.933 63.1386L135.093 62.7767L134.96 59.0075L134.826 55.2382H132.315H129.803V59.0791V62.92L127.848 63.2061C126.773 63.3632 125.424 63.6231 124.85 63.7834L123.806 64.075L123.93 53.1125L124.053 42.1504L125.778 42.1569L127.503 42.1628V38.1387C127.503 34.1517 127.514 34.1141 128.653 34.1141H129.803V28.6305C129.803 25.4702 129.998 23.0267 130.263 22.8632C130.516 22.7071 130.723 21.0833 130.723 19.2546V15.9299L129.136 15.3568C128.263 15.0418 127.029 14.1669 126.394 13.4134C122.803 9.15273 124.686 2.72962 130.091 0.806407C131.522 0.297132 131.647 0.171764 130.723 0.169927C130.091 0.168549 128.949 0.439491 128.185 0.771966ZM141.073 67.5338C149.174 70.1064 158.709 77.5976 165.724 86.9019C172.305 95.6307 176.814 106.213 179.236 118.612C180.666 125.933 180.667 126.457 179.244 123.036C174.898 112.587 170.436 105.979 163.387 99.5529L160.869 97.2568L163.213 99.8647C173.508 111.322 179.393 126.619 180.679 145.266L180.996 149.851L178.055 148.509C172.352 145.906 150.176 135.874 142.258 132.315C136.668 129.803 133.7 128.713 132.45 128.713C131.248 128.713 128.355 129.717 123.675 131.758C119.835 133.433 113.381 136.246 109.333 138.009C101.26 141.525 97.7597 143.056 89.7429 146.577C86.8113 147.866 84.1405 148.919 83.8079 148.919C83.318 148.919 83.2582 147.063 83.4924 139.161C83.8889 125.773 84.831 119.578 87.5353 112.577C90.4968 104.912 94.0636 99.4137 100.418 92.7193C108.618 84.0813 117.59 78.4977 126.353 76.58C128.908 76.0211 128.979 75.9734 127.303 75.9394C122.909 75.8512 115.441 78.6607 109.48 82.6449C105.519 85.2923 96.4934 93.8324 93.5687 97.7013C90.7857 101.383 90.5649 101.603 91.1123 100.155C92.8906 95.4521 97.9051 87.5801 102.119 82.8773C109.595 74.5337 118.409 68.8095 127.273 66.5414C129.308 66.0207 138.358 66.6714 141.073 67.5338ZM17.5633 182.587C17.5633 183.67 19.3854 189.372 20.4517 191.626C21.9163 194.724 24.8254 199.761 25.9643 201.172C28.4161 204.209 35.0351 210.458 37.226 211.804L39.6268 213.279L49.0628 218.055C50.7873 215.886 49.6111 211.278 50.3857 208.2L50.9607 200.145C49.2794 198.15 48.9606 196.016 50.6475 194.331C50.429 194.331 51.3145 193.665 50.6475 194.331C50.866 194.331 50.0048 190.96 50.0108 190.013C50.0168 189.066 50.1677 188 50.3917 187.036C47.2109 186.17 46.3037 186 45.9269 185.867C45.6335 185.764 42.0813 185.26 38.0333 184.747C24.7053 183.059 20.1099 182.444 18.8283 182.175C17.9001 181.981 17.5633 182.09 17.5633 182.587ZM243.812 184.044C243.688 184.167 233.045 186.44 220.16 189.095C185.463 196.243 186.843 195.889 186.843 197.636C186.843 199.284 185.279 199.523 182.961 198.229C178.09 195.511 166.521 192.4 155.563 190.862C150.914 190.21 146.512 190.054 132.563 190.05C117.338 190.046 114.447 190.164 107.931 191.053C98.803 192.298 89.2024 194.673 84.1681 196.93C82.0701 197.871 79.7323 198.664 78.9733 198.693C77.8072 198.737 77.5717 198.556 77.4526 197.529C77.2391 195.692 76.1963 195.053 70.9233 193.524C68.2668 192.754 62.5743 190.979 58.2733 189.58C53.9723 188.181 50.4257 187.036 50.3917 187.036C50.3581 187.035 50.1865 188.375 50.0108 190.013C49.733 192.603 49.8162 193.166 50.6475 194.331C51.7588 195.89 51.9152 198.784 50.9607 200.145C50.4699 200.844 50.3342 202.745 50.3857 208.2C50.4529 215.3 50.4455 215.355 49.0628 218.055C48.0558 220.021 47.1685 221.057 45.8428 221.815C44.1316 222.793 43.4747 222.839 41.1811 222.14C40.7147 221.997 41.0822 222.297 41.9976 222.806C44.2682 224.069 46.4058 223.467 48.5545 220.961L50.1511 219.099L51.452 220.007C52.1678 220.506 54.9268 222.152 57.5833 223.663C60.2398 225.175 65.4815 228.207 69.2315 230.4C72.9814 232.594 76.2934 234.482 76.5915 234.596C77.0022 234.754 77.0998 231.233 76.9944 220.06C76.8376 203.461 76.718 204.11 80.3161 202.005C87.0013 198.094 100.115 194.763 113.933 193.467C121.539 192.753 143.606 192.882 151.122 193.684C161.476 194.789 169.838 196.538 176.723 199.039C181.013 200.598 186.288 203.613 186.571 204.669C186.714 205.199 186.834 211.987 186.837 219.754C186.841 227.52 186.958 233.875 187.098 233.875C187.412 233.875 191.455 231.638 195.007 229.5C196.463 228.624 197.774 227.907 197.922 227.906C198.165 227.905 212.453 219.806 222.91 213.742C227.51 211.075 230.131 209.067 233.617 205.541C238.403 200.7 242.554 193.75 244.586 187.177C245.539 184.093 245.559 183.82 244.83 183.82C244.393 183.82 243.936 183.921 243.812 184.044ZM118.993 227.281C104.888 228.424 92.5341 231.199 83.4404 235.268L80.0879 236.769L83.9004 238.802C87.3996 240.668 93.3617 244.093 98.5233 247.202C115.366 257.347 122.05 259.548 134.359 259C138.717 258.807 141.123 258.448 144.063 257.555C148.346 256.254 155.719 252.781 157.929 251.022C158.273 250.749 162.072 248.507 166.373 246.04C170.674 243.573 174.918 241.137 175.803 240.628C176.689 240.12 178.138 239.31 179.023 238.831C179.909 238.35 181.11 237.598 181.693 237.158C182.854 236.283 183.663 236.699 172.123 232.23C168.666 230.891 161.336 229.365 152.343 228.112C147.231 227.399 124.519 226.834 118.993 227.281Z" fill="white"/>
<path d="M17.2578 174L17.7578 183L29.2578 204L75.7578 233.5L81.7578 237.5L178.258 238.5L187.758 233.5V201L244.758 184.5L245.758 179L131.758 133L17.2578 174Z" fill="white" stroke="white"/>
<path d="M90.2129 212.6L56.5529 200.687L57.0809 192.338L58.4669 192.569C60.3369 192.855 62.1409 193.097 63.8789 193.295C65.6389 193.471 67.3659 193.559 69.0599 193.559C70.7319 193.559 72.1839 193.416 73.4159 193.13C74.6479 192.844 75.6709 192.415 76.4849 191.843C77.2989 191.249 77.9039 190.523 78.2999 189.665C78.6959 188.807 78.8939 187.806 78.8939 186.662V185.309C78.8939 183.417 78.3769 181.954 77.3429 180.92C76.3089 179.886 74.8239 179.38 72.8879 179.402C71.0179 179.424 69.5769 179.941 68.5649 180.953C67.5529 181.965 67.0469 183.384 67.0469 185.21C67.0469 185.54 67.0469 185.947 67.0469 186.431C67.0469 186.893 67.0469 187.377 67.0469 187.883H57.3449C57.3449 187.377 57.3449 186.882 57.3449 186.398C57.3449 185.914 57.3449 185.463 57.3449 185.045C57.3449 180.689 58.6539 177.4 61.2719 175.178C63.8899 172.934 67.7289 171.812 72.7889 171.812C77.8269 171.812 81.7209 172.956 84.4709 175.244C87.2209 177.532 88.5959 180.898 88.5959 185.342V186.794C88.5959 189.368 88.0789 191.568 87.0449 193.394C86.0329 195.198 84.5259 196.573 82.5239 197.519C80.5439 198.443 78.1019 198.905 75.1979 198.905C74.2519 198.905 73.2399 198.817 72.1619 198.641C71.1059 198.443 70.0389 198.157 68.9609 197.783L76.1879 196.661L75.8249 199.235L80.0489 200.555L90.8729 204.185L90.2129 212.6ZM52.4279 171.152L51.8999 163.76H92.8529L93.3479 171.152H52.4279ZM89.8499 161.681L82.3919 164.453L79.9169 164.75C80.6209 163.958 80.9729 162.935 80.9729 161.681C80.9729 160.537 80.6099 159.734 79.8839 159.272C79.1799 158.81 78.0359 158.579 76.4519 158.579H67.5089C62.9549 158.579 59.5779 157.71 57.3779 155.972C55.1999 154.234 54.1109 151.561 54.1109 147.953V146.831H62.5259L62.6249 147.656C62.7349 148.932 63.1859 149.834 63.9779 150.362C64.7919 150.868 66.0679 151.121 67.8059 151.121H77.7389C80.3349 151.121 82.5349 151.462 84.3389 152.144C86.1649 152.804 87.5509 153.838 88.4969 155.246C89.4649 156.632 89.9489 158.436 89.9489 160.658C89.9489 160.834 89.9379 161.01 89.9159 161.186C89.8939 161.34 89.8719 161.505 89.8499 161.681ZM118.722 206.099L95.1934 195.539V180.953C97.9214 179.765 100.77 178.643 103.74 177.587C106.71 176.531 109.735 175.585 112.815 174.749C115.917 173.891 118.986 173.187 122.022 172.637L123.408 180.689C120.944 181.173 118.469 181.745 115.983 182.405C113.497 183.043 111.022 183.78 108.558 184.616C106.094 185.43 103.641 186.343 101.199 187.355L104.73 183.065V195.737L101.133 189.533L118.425 197.387L117.963 199.829L117.468 192.14V176.96L117.765 175.442V169.667H126.642V175.706L126.84 177.191V206.099H118.722ZM130.734 198.41L130.173 190.754C130.525 190.754 130.877 190.754 131.229 190.754C131.603 190.754 131.933 190.754 132.219 190.754C133.715 190.754 134.826 190.446 135.552 189.83C136.278 189.214 136.641 188.268 136.641 186.992V186.266C136.641 184.88 136.201 183.846 135.321 183.164C134.463 182.482 133.055 181.998 131.097 181.712L124.002 180.689V172.67L130.767 173.759C134.463 174.353 137.433 175.167 139.677 176.201C141.921 177.213 143.549 178.555 144.561 180.227C145.573 181.877 146.079 183.945 146.079 186.431V187.223C146.079 191.095 145.023 193.933 142.911 195.737C140.821 197.541 137.532 198.443 133.044 198.443C132.648 198.443 132.263 198.443 131.889 198.443C131.515 198.443 131.13 198.432 130.734 198.41ZM91.2664 171.152L90.7384 163.76H149.082L149.643 171.152H91.2664ZM122.748 167.456H126.642V181.58H122.748V167.456ZM122.748 171.152V163.76H131.988L132.516 171.152H122.748ZM148.114 171.152L147.586 163.76H185.305V171.152H148.114ZM177.055 206.099L152.041 195.638V181.118C156.309 179.38 160.852 177.763 165.67 176.267C170.51 174.749 175.416 173.495 180.388 172.505L181.774 180.887C179.068 181.371 176.34 181.965 173.59 182.669C170.84 183.351 168.134 184.143 165.472 185.045C162.832 185.925 160.324 186.915 157.948 188.015L161.644 183.23V194.813L157.948 189.599L176.758 197.486L176.197 199.829L175.735 192.14V178.082L175.9 175.739V169.469H185.305V206.099H177.055ZM181.411 167.456H185.305V181.58H181.411V167.456ZM181.411 171.152V163.76H190.651L191.179 171.152H181.411ZM162.139 213.986C160.445 213.986 159.158 213.524 158.278 212.6C157.398 211.698 156.958 210.466 156.958 208.904V208.673C156.958 207.089 157.398 205.835 158.278 204.911C159.158 203.987 160.445 203.525 162.139 203.525C163.877 203.525 165.175 203.987 166.033 204.911C166.891 205.835 167.32 207.089 167.32 208.673V208.904C167.32 210.466 166.88 211.698 166 212.6C165.142 213.524 163.855 213.986 162.139 213.986ZM194.254 206V169.007H203.857V206H194.254ZM188.875 171.152L188.38 163.76H203.296V171.152H188.875ZM199.963 167.456H203.857V181.58H199.963V167.456ZM199.963 171.152V163.76H209.17L209.698 171.152H199.963Z" fill="#F9BD36"/>
<path d="M46.7578 217L50.7566 219.499L49.7566 222.999L48.7566 226.499L39.6941 222L46.7578 217Z" fill="#ECF8E3"/>
</g>
<path d="M17.5495 165.277L16.4991 172.001L22.5687 175.077L15.8499 176.156L14.7996 182.879L11.6975 176.823L4.97871 177.901L9.78031 173.079L6.67822 167.023L12.7479 170.099L17.5495 165.277Z" fill="#F9BD36"/>
<path d="M210.931 215.614L212.977 223.873L221.463 224.48L214.241 228.977L216.286 237.236L209.777 231.757L202.555 236.255L205.754 228.371L199.245 222.892L207.731 223.498L210.931 215.614Z" fill="#F9BD36"/>
<path d="M251.685 171.185L250.231 181.252L259.356 185.745L249.333 187.474L247.879 197.541L243.138 188.542L233.114 190.27L240.207 182.98L235.466 173.981L244.591 178.475L251.685 171.185Z" fill="#F9BD36"/>
<defs>
<clipPath id="clip0_1690_1245">
<rect width="230" height="259" fill="white" transform="translate(16.2578)"/>
</clipPath>
</defs>
</svg>
