<svg width="110" height="110" viewBox="0 0 110 110" fill="none" xmlns="http://www.w3.org/2000/svg">
<path d="M26.9375 0H27.625L29.5 1.875L30 2.3125L30.8125 3.0625L31.875 4.125L32.375 4.5625L34.8125 7L35.5625 7.5625L35.875 7.6875L36.3125 7.75L46.4375 7.8125L46.8125 7.9375L46.875 8V18.875L47 19.4375L47.4375 20L47.875 20.4375L48.3125 20.9375L48.8125 21.375L50.625 23.1875L51.0625 23.6875L51.875 24.5L52.3125 25L53 25.6875L53.4375 26.1875L54.1875 27L54.375 27.25L55 26.6875L55.5625 26.0625L56.1875 25.5L57.0625 24.625L57.5 24.125L57.6875 23.9375H57.8125L57.9375 23.6875H58.0625L58.1875 23.4375L58.9375 22.6875H59.0625L59.1875 22.4375L59.4375 22.1875H59.5625L59.625 22L60.125 21.5625L60.6875 21L61.1875 20.5625L62.1875 19.5625L62.5 19L62.625 18.625L62.5625 11.75V8.25L62.75 7.9375L63.0625 7.8125L63.9375 7.75H67L72.25 7.8125H73.9375L74.5625 7.5625L75.375 6.8125L79.875 2.3125L80.375 1.875L81.25 1L81.75 0.5625L82.125 0.125L82.1875 0H83L83.625 0.5625L89.0625 6L89.5 6.5L90.375 7.375L90.9375 7.6875L91.25 7.75L101.938 7.8125L102.062 7.9375V19L102.188 19.625L103.125 20.625L104.125 21.625L104.625 22.0625L107.812 25.25L108.25 25.75L109.188 26.6875L109.5 26.9375L110 27.125V28.0625L108.938 29.0625L107.688 30.3125L107.25 30.6875L106.812 31.1875L103.312 34.6875L102.875 35.1875L102.312 35.875L102.188 36.125L102.125 37.125L102.062 47L101.875 47.1875H91.5L90.6875 47.25L90.125 47.5L89.3125 48.1875L85 52.5L84.5625 53L83.25 54.3125L82.8125 55L82.9375 55.3125L84.5625 56.9375L85.0625 57.375L86 58.25L86.75 58.9375L87.75 59.875L89.375 61.5L89.8125 62L90.4375 62.5625L91 62.875L91.875 63H101.75L102 63.125L102.062 73.5L102.125 74.5L102.312 74.875L102.875 75.5L103.188 75.875L103.688 76.3125L103.875 76.5V76.625L104.125 76.75L105.875 78.5V78.625L106.125 78.75L106.562 79.25L107.375 80.0625L107.812 80.5625L108.312 81.0625L108.875 81.75L109.5 82.3125L110 82.75V83.5L109.562 83.9375L109.062 84.375L107.812 85.5L106.312 87H106.188V87.125H106.062V87.25H105.938V87.375H105.812V87.5H105.688V87.625H105.562V87.75H105.438V87.875L104.938 88.3125L103.625 89.625L103.188 90.125L102.688 90.625L102.312 91.125L102.188 91.5L102.125 92.3125L102.062 100.625L102 102.125L101.75 102.438L101.625 102.5L100 102.562L92.375 102.5L90.625 102.562L90.125 102.812L89.1875 103.625L88.75 104.125L88.5625 104.312H88.4375L88.375 104.5H88.25L88.125 104.75L83.3125 109.562L83 110H81.1875L80.5625 109.188L79.75 108.375L79.3125 107.875L77.8125 106.375L77.375 105.875L76.8125 105.312L76.375 104.812L75.375 103.75L74.5625 103L74.0625 102.688L73.3125 102.562H63.3125L62.875 102.438L62.6875 102.062L62.625 100.938L62.5625 98.5V91.125L62.375 90.625L61.875 89.9375L61 89L59.8125 87.8125L59.3125 87.375L56.75 84.8125L56.3125 84.3125L55.4375 83.4375L55.0625 83.125L54.8125 83.1875L53.25 84.75L52.8125 85.25L52.5625 85.5H52.4375V85.625L51.5625 86.5L51.25 86.75L50.8125 87.25L50.125 87.875L50.0625 88H49.9375L49.8125 88.25L49 89L48.625 89.4375L48.3125 89.75H48.1875L48.0625 90L47.3125 90.75L47 91.1875L46.9375 91.375L46.875 101.625L46.8125 102.188L46.5 102.438L46.0625 102.5L44.8125 102.562H35.25L34.5625 103L34.125 103.438L33.625 103.875L32.9375 104.562H32.8125L32.6875 104.812L32.4375 105.062H32.3125L32.1875 105.312L28.125 109.375L27.6875 109.938L27.625 110H25.9375L25.375 109.312L25.1875 109.125V109L24.9375 108.875L23.75 107.688L23.3125 107.188L22.625 106.5L22.1875 106L21.5625 105.312L21.125 104.812L20.4375 104.062L19.625 103.25L19 102.812L18.4375 102.562H8.1875L7.5625 102.438L7.375 102.062L7.3125 101V91.0625L6.9375 90.3125L6.25 89.5625L5.8125 89.0625L4.25 87.5L3.75 87.0625L0 83.3125V81.5625L0.5 81.125L1.1875 80.4375L1.6875 80L2 79.6875H2.125V79.5625L2.625 79.125L3.375 78.375L3.5 78.1875H3.625L3.75 77.9375L4.0625 77.6875L4.5 77.1875L5.1875 76.5625L5.625 76.0625L6.0625 75.6875L6.5 75.1875L7 74.625L7.1875 74.25L7.25 74L7.3125 63.4375L7.625 63.0625L7.8125 63H18.875L19.5 62.6875L20.125 62.125L21.0625 61.1875L21.5 60.6875L25.5 56.6875H25.625V56.5625L26.125 56.125L26.9375 55.4375L27.1875 55.25H26.75L26.375 55L25.4375 54.125L23.625 52.1875L23.0625 51.625L22.625 51.125L21.625 50.125L21.1875 49.625L20.5 48.9375L20.0625 48.4375L19.625 48L19.125 47.5625L18.625 47.25H7.375L7.3125 47.125V35.9375L7.0625 35.3125L6.5625 34.625L5.625 33.625L4.5625 32.5625L4.0625 32.125L0 28.0625V26.375L0.3125 26L0.875 25.5625L1.25 25.1875H1.375V25.0625L1.875 24.625L2.9375 23.625L3.9375 22.625L4.375 22.125L6.875 19.625L7.25 18.875L7.3125 8.0625L7.625 7.8125L9.125 7.75L15.25 7.8125H18.9375L19.5 7.4375L20.25 6.75L21.9375 5.0625L22 4.9375H22.125L22.25 4.6875L26.5 0.4375H26.625V0.3125H26.75V0.1875H26.875L26.9375 0ZM82.3125 1.3125L82.375 1.5625L82.125 1.625L81.5 2.1875L80.75 2.9375L80.25 3.375L80 3.6875L79.5 4.125L78.1875 5.4375L77.6875 5.875L75.5625 8L75.0625 8.4375L74.75 8.75L69.5 8.8125H64L63.8125 8.9375L63.75 18.75L63.6875 19.375L63.1875 20L60.25 22.9375L59.75 23.375L58.6875 24.4375L58.5625 24.5V24.625H58.4375V24.75L58.1875 24.875L57.3125 25.8125L56.5625 26.625L56.1875 27.125L56.25 27.375L57 28.1875L60.8125 32L60.9375 32.1875H61.0625L61.1875 32.4375L62.3125 33.5625L62.75 34.0625L63.4375 34.9375L63.6875 35.5L63.75 35.8125V39.0625L63.6875 42.125V46.0625L63.75 46.125L64.375 46.1875H74.1875L74.6875 46.375L75.375 46.9375L75.875 47.4375L76.3125 47.9375L77.8125 49.4375L78.25 49.9375L78.8125 50.5L79.25 51L80.6875 52.4375L81.125 52.9375L82 53.8125L82.3125 53.875L82.8125 53.4375L83.3125 52.8125L84.25 51.875L84.6875 51.375L89.1875 46.875L89.9375 46.3125L90.4375 46.125H95.4375L98 46.1875H101L101.062 46.125V37.3125L101.125 35.8125L101.375 35.3125L103.375 33.1875L105.188 31.375L105.625 30.875L106.688 29.8125L107.125 29.4375L107.562 28.9375L108.812 27.6875L108.5 27.5L102.812 21.8125L102.375 21.3125L101.75 20.6875L101.188 19.9375L101.125 19.75L101.062 9.125L101 8.9375L100.562 8.8125H90.6875L90.0625 8.5L89.3125 7.875L88.875 7.375L85.3125 3.8125L85.25 3.6875H85.125L85 3.4375L84.0625 2.5625L83.4375 2L82.6875 1.4375L82.5 1.3125H82.3125ZM27.1875 1.4375L26.375 2.0625L25.75 2.6875L25.25 3.125L20.4375 7.9375L19.9375 8.375L19.6875 8.6875L19.5625 8.75L8.5625 8.8125L8.5 9V18.9375L8.3125 19.5L7.75 20.125L7.3125 20.625L2.4375 25.5L2 26L0.75 27.25V27.375L1.25 27.8125L2.625 29.1875H2.75L2.875 29.4375L3.375 29.875L4.6875 31.1875L5.1875 31.625L5.75 32.1875L6.25 32.625L6.8125 33.1875L7.25 33.6875L7.75 34.25L8.3125 35.0625L8.5 35.5L8.4375 46.125L8.5 46.1875H18.8125L19.5 46.4375L20.25 47.125L21.8125 48.6875L22.25 49.1875L25.8125 52.75L26.25 53.25L26.875 53.875L27.125 53.9375L27.4375 53.5625L27.75 53.25L28.6875 52.25L29.5625 51.375L29.875 51L31.5 49.375L31.75 49.0625L32.25 48.625L32.6875 48.125L33.1875 47.6875L34 46.875L34.8125 46.3125L35.1875 46.1875L35.8125 46.125H40.0625L45.375 46.25L45.75 46.125V43.8125L45.6875 40.0625V36.125L45.9375 35.5625L46.375 35.0625L53.0625 28.375L53.3125 28.0625L53.25 27.8125L52.5625 27L51.8125 26.125L50.875 25.125L50.1875 24.4375L49.75 23.9375L46.9375 21.125L46.5 20.625L45.9375 19.875L45.6875 18.9375V15.9375L45.75 12.9375V8.875H36.0625L35.375 8.75L34.6875 8.3125L33.9375 7.625L32.875 6.5625L32.375 6.125L31.625 5.375L31.125 4.9375L30.1875 4L29.6875 3.5625L28.625 2.5L28.125 2.0625L27.3125 1.4375H27.1875ZM55 27.75L54.6875 28L54.125 28.6875L48.0625 34.75L47.625 35.25L47.1875 35.6875L46.875 36.1875L46.8125 37.5V47L46.6875 47.0625L45.6875 47.125H37.25L35.75 47.1875L35.25 47.3125L34.625 47.75L33.875 48.4375L33.375 48.875L32.1875 50.0625L31.75 50.5625L29.3125 53L28.875 53.5L27.9375 54.4375L27.5625 54.9375L27.625 55.1875L29.375 56.9375H29.5L29.5625 57.125L30.0625 57.5625L33.4375 60.9375L33.875 61.4375L34.8125 62.375L35.4375 62.8125L36 63L37 63.0625H46.4375L46.75 63.1875L46.8125 63.3125V74.0625L46.875 74.75L47.0625 75.0625L47.75 75.8125L48.3125 76.375L48.8125 76.8125L51.125 79.125L51.625 79.5625L54.125 82.0625L54.4375 82.3125L54.6875 82.1875L55.375 81.625L55.8125 81.125L56.6875 80.25L57.1875 79.8125L60.6875 76.3125L61.1875 75.875L62.375 74.6875L62.5625 74.3125L62.625 73.75V63.375L62.75 63.125L62.9375 63.0625L74.125 63L74.6875 62.875L75.3125 62.3125L76 61.625L76.4375 61.125L76.75 60.8125V60.6875H76.875L77.3125 60.1875L78.3125 59.1875L78.75 58.6875L81.125 56.3125L81.625 55.875L82.1875 55.375V55.25L81.5625 54.9375L80 53.375L79.5625 52.875L79.0625 52.375L78.625 51.875L77.9375 51.1875L77.5 50.6875L76.5 49.6875L76.0625 49.1875L75.3125 48.4375L74.875 47.9375L74.1875 47.375L73.9375 47.25L73.4375 47.1875H62.75L62.6875 46.8125L62.625 35.6875L62.1875 35L61.625 34.3125L60.625 33.25L59.5625 32.1875H59.4375L59.3125 31.9375H59.1875L59.0625 31.6875H58.9375L58.8125 31.4375H58.6875L58.5625 31.1875L55.9375 28.5625L55.4375 27.9375L55.25 27.75H55ZM27.25 56.5625L26.5 57.25L24.375 59.375L23.9375 59.75V59.875L23.6875 60L21.6875 62L21.5625 62.0625V62.1875L21.3125 62.3125L20.625 63L20.125 63.4375L19.6875 63.875L19.375 64L18.4375 64.0625H13.625L8.625 64L8.5625 64.0625L8.5 74.1875L8.375 74.625L7.75 75.4375L4.1875 79L3.6875 79.4375L2.3125 80.8125L1.875 81.3125L0.9375 82.25L0.8125 82.3125L0.875 82.5625L3.8125 85.5L4.125 85.875L4.625 86.3125L6.0625 87.75L6.1875 87.9375H6.3125L6.4375 88.1875L7.1875 88.9375L7.625 89.4375L8.125 90.0625L8.5 90.6875V101.438L18.75 101.5L19.5 101.75L20.125 102.25L21.25 103.375L21.6875 103.875L22.625 104.875L23.4375 105.688L23.875 106.188L24.75 107.062L25.1875 107.562L25.75 108.125L26.1875 108.688L26.625 109.125L26.9375 109L27.625 108.5L28.0625 108.062L28.5625 107.625L29.625 106.562V106.438H29.75L30.1875 105.938L32.4375 103.688L32.875 103.188L33.625 102.5L34.25 101.875L34.9375 101.438L35.4375 101.312H37.8125L42.6875 101.438L44.5625 101.5H45.4375L45.6875 101.375L45.75 100.938V99.4375L45.6875 96V93.3125L45.75 91.1875L46.125 90.4375L50.8125 85.75L51.3125 85.3125L52.25 84.375L52.6875 83.875L53.25 83.25L53.375 83L52.6875 82.25L52.0625 81.625L51.625 81.125L48.8125 78.3125L48.375 77.8125L46.75 76.1875L46.1875 75.5L45.8125 75L45.75 74.25V64.125L45.6875 64.0625H43.75L37.9375 64.125H35.6875L35.0625 63.875L34.375 63.3125L33.5625 62.5625L28.75 57.75L28.25 57.3125L27.5 56.625L27.25 56.5625ZM82.5 56.5625L82 56.9375L81.0625 57.8125L80.75 58.1875L80.25 58.625L79.1875 59.6875L78.75 60.1875L77.0625 61.875V62H76.9375L76.6875 62.25V62.375L76.4375 62.5L75.5 63.4375L74.875 63.9375L74.625 64L63.875 64.0625L63.8125 64.125L63.75 74.25L63.625 74.6875L62.875 75.5L62.3125 76.125L60.1875 78.25L59.6875 78.6875L57 81.375L56.6875 81.75L56.1875 82.1875L55.9375 82.5L56.375 82.9375L56.75 83.25L56.875 83.4375H57L57.125 83.6875L57.375 83.9375H57.5L57.625 84.1875H57.75L57.875 84.4375H58L58.125 84.6875L58.625 85.125L60.1875 86.6875L60.6875 87.125L61.5 87.9375H61.625V88.0625H61.75V88.1875H61.875L62 88.4375L62.5625 89L63.125 89.6875L63.5625 90.3125L63.75 91V101.188L63.875 101.438H73.375L74.25 101.5L74.75 101.75L75.625 102.5L76.5625 103.438L77 103.938L78 104.938L78.5 105.375L79.6875 106.562L80.125 107.062L80.75 107.625L81.6875 108.625L82.0625 108.938L82.375 109L82.75 108.75L85.125 106.375V106.25L85.3125 106.188L85.75 105.688L87.5625 103.875L88 103.375L89.375 102L90.1875 101.438L90.6875 101.312H93.8125L96.875 101.375L98.5625 101.438H100.812L100.938 101.375L101 101.125L101.062 100.312V91.625L101.188 90.875L101.562 90.3125L102.25 89.5625L103.812 88L104.312 87.5625L105.812 86.0625L106.312 85.625L106.875 85.0625L107.375 84.625L108.375 83.625L108.75 83.3125V83.1875L108.25 82.75L107.5 81.875L106 80.25L105.188 79.4375L104.75 78.9375L102.25 76.4375L101.812 75.9375L101.312 75.3125L101.125 74.875L101.062 64.125L100.938 64.0625H97L91.125 64.125L90.5625 64L89.9375 63.5625L88.9375 62.625L87.625 61.3125L87.125 60.875L86.5 60.25L86 59.8125L83.875 57.8125L83 56.9375L82.5 56.5625Z" fill="#F5E9BC"/>
<path d="M82.375 10.9375L82.75 11.125L83.375 11.6875L84.3125 12.625L84.8125 13.0625L85.25 13.4375L87.125 15.3125L87.8125 15.6875L88.3125 15.75H90.5L92.875 15.6875H94L94.1875 15.8125L94.25 16V22.5L94.5 22.875L95.0625 23.5L95.375 23.875L95.75 24.1875L96.0625 24.5625L96.5625 25L98.375 26.8125L98.75 27.125L99 27.5625V27.875L98.3125 28.625L96.75 30.1875L96.25 30.625L94.875 32L94.5 32.5L94.375 32.8125L94.3125 33.875V36L94.25 39.125L93.9375 39.5H90.6875L89.375 39.4375H87.875L87.25 39.5625L86.5625 40L86.125 40.4375L85.625 40.875L84.125 42.375L83.6875 42.875L83.125 43.5L82.75 43.9375L82.25 44.0625L82 44L81.625 43.75L81 43.1875L80 42.125L79.0625 41.125L78.625 40.625L77.9375 40.0625L77.4375 39.75L77 39.625L71.5 39.5625L70.8125 39.5L70.625 39.3125L70.5 38.75L70.4375 38.1875L70.5 34.875V32.75L70.0625 32L69.5 31.375L69.0625 30.875L66 27.8125L65.75 27.4375L65.875 27.125L66.3125 26.5625L67.4375 25.4375L67.9375 25L68.4375 24.5L68.9375 24.0625L69.9375 23.0625L70.375 22.375L70.5 21.875V20.5625L70.375 17.875V16.9375L70.5 16.125L70.75 15.75L70.875 15.6875H73.375L75.3125 15.75H77.1875L77.6875 15.5625L78.375 15L78.8125 14.5625L79.25 14.0625L80.25 13L80.9375 12.3125L81 12.1875H81.125L81.25 11.9375L81.8125 11.4375L82.125 11.125L82.375 10.9375ZM82.375 12.5L81.8125 12.875L81 13.6875L80.5625 14.1875L78.625 16.125L77.75 16.6875H71.9375L71.5625 16.8125L71.5 17.0625V18.4375L71.625 20.9375V22.5625L71 23.4375L69.25 25.1875L68.75 25.625L67.1875 27.1875L67.0625 27.25L67.1875 27.5L67.9375 28.25L68.0625 28.4375H68.1875L68.3125 28.6875L68.8125 29.125L69.625 29.9375H69.75L69.875 30.1875H70L70.125 30.4375H70.25L70.375 30.6875H70.5L70.625 30.9375L71.125 31.5L71.4375 32.125L71.5625 32.625V34.5625L71.5 36.6875V38.1875L71.5625 38.3125L72.125 38.375H76.8125L77.5 38.4375L78.25 38.8125L78.875 39.375L79.4375 39.9375L79.875 40.4375L80.6875 41.25L81.125 41.75L81.875 42.5L82.3125 42.75L82.6875 42.5L83.5 41.6875L83.9375 41.1875L84.875 40.1875L86.0625 39L86.875 38.4375L87.375 38.25H89.1875L92 38.4375H93.0625L93.125 38.3125L93.1875 37.0625V32.75L93.4375 32.1875L94 31.5L94.375 31.125V31L94.625 30.875L95.125 30.375V30.25L95.3125 30.1875L95.625 29.875V29.75L95.875 29.625L97.125 28.375L97.5 27.8125L97.4375 27.5L96.9375 26.875L96.375 26.3125L95.875 25.875L95.4375 25.4375L94.9375 25L93.9375 24L93.375 23.25L93.1875 22.6875V17.25L93.125 16.8125L92.9375 16.6875H92L90 16.75H87.5625L86.875 16.5L86.25 16L83.375 13.125L82.5625 12.5H82.375Z" fill="#F5E9BC"/>
<path d="M27 66.25L27.375 66.3125L27.75 66.5625L28.6875 67.4375L31.5625 70.3125L32.1875 70.75L32.625 70.875L37.375 70.9375L38.625 71L39 71.1875L39.0625 71.375L39.125 77.75L39.3125 78.3125L39.5625 78.5625V78.6875L39.8125 78.8125L40.375 79.375L40.75 79.6875L43.125 82.0625L43.5625 82.5625L43.75 82.8125L43.6875 83.1875L43 83.9375L41.75 85.1875L41.25 85.625L40.0625 86.8125L39.625 87.3125L39.25 87.875L39.1875 88.1875L39.125 89.4375L39.0625 92.4375L38.9375 94.375L38.75 94.6875L38.625 94.75H36.625L32.5625 94.6875L31.9375 94.875L31.4375 95.1875L30.625 95.875L29.125 97.375L28.6875 97.875L28 98.625L27.75 98.9375L27 99.3125H26.625L25.9375 98.75L25.25 98L24.6875 97.3125L23.9375 96.4375L23.1875 95.625L22.625 95.125L22.125 94.875L21.8125 94.8125L20.5 94.75L15.875 94.8125L15.375 94.6875L15.125 94.1875V91L15.1875 89.3125V88.125L14.9375 87.5L14.375 86.8125L12.25 84.6875L11.8125 84.1875L11.25 83.625L10.8125 83.125L10.5 82.625L10.5625 82.3125L10.8125 82L11.5 81.4375L11.875 81L12.375 80.5625L12.9375 80L13.4375 79.5625L14.3125 78.6875L14.8125 78.0625L15.0625 77.5L15.125 75.1875V71.4375L15.3125 71.125L15.6875 70.9375H22L22.5 70.8125L23 70.375L23.75 69.625L24.3125 68.9375L24.8125 68.4375L25.25 67.9375L26.75 66.4375L27 66.25ZM27.0625 67.75L26.5625 68.1875L26.0625 68.6875L25.9375 68.75V68.875L25.6875 69L25.0625 69.625L24.625 70.125L23.625 71.125L22.8125 71.75L22.625 71.8125L16.1875 71.875L16.125 72.25V73.75L16.25 76.125V77.9375L15.875 78.5L15.1875 79.25L14.5625 79.875L14.0625 80.3125L12.75 81.625L12.125 82.125L11.9375 82.4375L12.0625 82.8125L12.375 83.125L12.9375 83.75L15.625 86.4375L16.125 87.25L16.1875 87.5V89.625L16.125 92.6875L16.1875 93.625L16.375 93.75H22.3125L22.9375 94L23.4375 94.375L23.75 94.625L24.1875 95.125L24.8125 95.8125L25.25 96.3125L25.9375 97.125L26.375 97.625L26.9375 98.125L27.4375 97.75L28 97.1875L28.4375 96.6875L28.9375 96.1875L29.375 95.6875L29.75 95.3125V95.1875H29.875L30.3125 94.6875L31 94.0625L31.75 93.625L32.1875 93.5625H33.25L36.625 93.75H37.6875L37.8125 93.6875L37.9375 92.5L38.0625 88.1875L38.25 87.5L38.625 86.9375L39.625 85.875L41 84.5L41.5 84.0625L42 83.5625L42.25 83.25L42.1875 82.8125L41.625 82.125L40.875 81.3125L39.875 80.375L38.5625 79.0625L38.1875 78.4375L38.0625 78V72.4375L37.9375 72L37.6875 71.875H32.125L31.4375 71.625L30.6875 70.9375L28.125 68.375L27.4375 67.8125L27.0625 67.75Z" fill="#F5E9BC"/>
</svg>
