<svg width="48" height="31" viewBox="0 0 48 31" fill="none" xmlns="http://www.w3.org/2000/svg">
<path d="M35.773 3.25391L40.9012 4.62522L47.017 19.3391C47.3174 20.0619 46.9326 20.8623 46.1251 21.1945L24.0008 30.2962L1.87641 21.1945C1.0689 20.8623 0.684144 20.062 0.984552 19.3391L7.10032 4.62522L12.2285 3.25391" fill="white"/>
<path d="M35.773 3.25391L40.9012 4.62522L47.017 19.3391C47.3174 20.0619 46.9326 20.8623 46.1251 21.1945L24.0008 30.2962L1.87641 21.1945C1.0689 20.8623 0.684144 20.062 0.984552 19.3391L7.10032 4.62522L12.2285 3.25391" stroke="#FFB61D" stroke-linecap="round" stroke-linejoin="round"/>
<path d="M24.002 6.1572C25.543 4.19743 30.9102 1.06877 34.9755 1L41.9103 17.7436C37.1277 18.8094 28.8511 21.7318 24.002 25.7887C19.1529 21.7318 10.8764 18.8094 6.09375 17.7436L13.0285 1C17.0937 1.06877 22.4609 4.19743 24.002 6.1572Z" fill="#1E2B1E" stroke="#FFB61D" stroke-linecap="round" stroke-linejoin="round"/>
</svg>
