<svg width="22" height="22" viewBox="0 0 22 22" fill="none" xmlns="http://www.w3.org/2000/svg">
<path fill-rule="evenodd" clip-rule="evenodd" d="M5.77508 0.426602C7.20366 0.10912 8.93673 0 11 0C13.0633 0 14.7963 0.10912 16.2249 0.426602C17.666 0.746867 18.8637 1.2936 19.785 2.21494C20.7064 3.13628 21.2531 4.33402 21.5734 5.77508C21.8909 7.20366 22 8.93673 22 11C22 13.0633 21.8909 14.7963 21.5734 16.2249C21.2531 17.666 20.7064 18.8637 19.785 19.785C18.8637 20.7064 17.666 21.2531 16.2249 21.5734C14.7963 21.8909 13.0633 22 11 22C8.93673 22 7.20366 21.8909 5.77508 21.5734C4.33402 21.2531 3.13628 20.7064 2.21494 19.785C1.2936 18.8637 0.746867 17.666 0.426602 16.2249C0.10912 14.7963 0 13.0633 0 11C0 8.93673 0.10912 7.20366 0.426602 5.77508C0.746867 4.33402 1.2936 3.13628 2.21494 2.21494C3.13628 1.2936 4.33402 0.746867 5.77508 0.426602ZM7.7 10.45C7.7 8.93123 8.93123 7.7 10.45 7.7C11.9688 7.7 13.2 8.93123 13.2 10.45C13.2 11.9688 11.9688 13.2 10.45 13.2C8.93123 13.2 7.7 11.9688 7.7 10.45ZM10.45 5.5C7.71619 5.5 5.5 7.71619 5.5 10.45C5.5 13.1838 7.71619 15.4 10.45 15.4C11.4186 15.4 12.3222 15.1218 13.0853 14.641L14.6222 16.1778C15.0517 16.6074 15.7483 16.6074 16.1778 16.1778C16.6074 15.7483 16.6074 15.0517 16.1778 14.6222L14.641 13.0853C15.1218 12.3222 15.4 11.4185 15.4 10.45C15.4 7.71619 13.1838 5.5 10.45 5.5Z" fill="#F5E9BC"/>
</svg>
