<svg width="32" height="32" viewBox="0 0 32 32" fill="none" xmlns="http://www.w3.org/2000/svg">
<path d="M10.8828 17.7407L14.5564 13.824C14.7388 13.6213 14.9619 13.4591 15.2111 13.3481C15.4602 13.2372 15.73 13.1797 16.0028 13.1797C16.2756 13.1797 16.5454 13.2372 16.7945 13.3481C17.0437 13.4591 17.2668 13.6213 17.4492 13.824L21.1228 17.7407" stroke="black" stroke-width="2" stroke-linecap="round" stroke-linejoin="round"/>
<path d="M4.47656 9.49695V22.2969C4.47656 25.1247 6.76886 27.4169 9.59656 27.4169H22.3966C25.2242 27.4169 27.5166 25.1247 27.5166 22.2969V9.49695C27.5166 6.66925 25.2242 4.37695 22.3966 4.37695H9.59656C6.76886 4.37695 4.47656 6.66925 4.47656 9.49695Z" stroke="black" stroke-width="2" stroke-linecap="round" stroke-linejoin="round"/>
</svg>
